# xmcd CD database file
#
# Track frame offsets:
#	150
#	35554
#	66752
#
# Disc length: 1431 seconds
#
# Revision: 0
# Processed by: cddbd v1.5.2PL0 Copyright (c) Steve Scherf et al.
# Submitted via: CDex 1.70beta2
#
DISCID=22059503
DTITLE=SEA - SEA
DYEAR=2016
DGENRE=Sludge Metal
TTITLE0=SEER
TTITLE1=MOROS
TTITLE2=CHRONOS
EXTD=YEAR: 2016
EXTT0=
EXTT1=
EXTT2=
PLAYORDER=
